<svg xmlns="http://www.w3.org/2000/svg" width="720" height="320" viewBox="0 0 720 320">
<rect width="720" height="320" fill="#ffffff"/>
<text x="24" y="24" font-family="Arial" font-size="16" fill="#1f2933">Week 9 Final Perception Run 1 Metrics</text>
<line x1="72" y1="240" x2="680" y2="240" stroke="#475569" stroke-width="1"/>
<line x1="72" y1="40" x2="72" y2="240" stroke="#475569" stroke-width="1"/>
<line x1="68" y1="240.0" x2="72" y2="240.0" stroke="#475569" stroke-width="1"/>
<text x="28" y="244.0" font-family="Arial" font-size="11" fill="#475569">0.0</text>
<line x1="68" y1="200.0" x2="72" y2="200.0" stroke="#475569" stroke-width="1"/>
<text x="28" y="204.0" font-family="Arial" font-size="11" fill="#475569">0.2</text>
<line x1="68" y1="160.0" x2="72" y2="160.0" stroke="#475569" stroke-width="1"/>
<text x="28" y="164.0" font-family="Arial" font-size="11" fill="#475569">0.4</text>
<line x1="68" y1="120.0" x2="72" y2="120.0" stroke="#475569" stroke-width="1"/>
<text x="28" y="124.0" font-family="Arial" font-size="11" fill="#475569">0.6</text>
<line x1="68" y1="80.0" x2="72" y2="80.0" stroke="#475569" stroke-width="1"/>
<text x="28" y="84.0" font-family="Arial" font-size="11" fill="#475569">0.8</text>
<line x1="68" y1="40.0" x2="72" y2="40.0" stroke="#475569" stroke-width="1"/>
<text x="28" y="44.0" font-family="Arial" font-size="11" fill="#475569">1.0</text>
<rect x="110" y="185.8" width="28" height="54.2" fill="#2f6f73"/>
<rect x="144" y="236.7" width="28" height="3.3" fill="#b14d2e"/>
<text x="104" y="264" font-family="Arial" font-size="12" fill="#1f2933">mIoU</text>
<rect x="260" y="163.3" width="28" height="76.7" fill="#2f6f73"/>
<rect x="294" y="221.0" width="28" height="19.0" fill="#b14d2e"/>
<text x="254" y="264" font-family="Arial" font-size="12" fill="#1f2933">PixAcc</text>
<rect x="410" y="40.0" width="28" height="200.0" fill="#2f6f73"/>
<rect x="444" y="240.0" width="28" height="0.0" fill="#b14d2e"/>
<text x="404" y="264" font-family="Arial" font-size="12" fill="#1f2933">Anom F1</text>
<rect x="560" y="240.0" width="28" height="0.0" fill="#2f6f73"/>
<rect x="594" y="240.0" width="28" height="0.0" fill="#b14d2e"/>
<text x="554" y="264" font-family="Arial" font-size="12" fill="#1f2933">Glare FA</text>
<rect x="500" y="20" width="16" height="10" fill="#2f6f73"/>
<text x="522" y="29" font-family="Arial" font-size="12" fill="#1f2933">validation rasterized</text>
<rect x="500" y="38" width="16" height="10" fill="#b14d2e"/>
<text x="522" y="47" font-family="Arial" font-size="12" fill="#1f2933">final-test path-traced</text>
</svg>
